<svg width="373" height="100" viewBox="0 0 373 100" fill="none" xmlns="http://www.w3.org/2000/svg">
<path d="M34.124 56.88L28.58 42.152C28.132 41.0133 27.6747 39.5667 27.208 37.812C27.0027 38.6893 26.7787 39.5013 26.536 40.248C26.2933 40.976 26.0693 41.62 25.864 42.18L20.32 56.88H34.124ZM46.528 72H41.46C40.8813 72 40.4147 71.86 40.06 71.58C39.7053 71.2813 39.4347 70.9173 39.248 70.488L35.888 61.584H18.528L15.168 70.488C15.0187 70.8613 14.7573 71.2067 14.384 71.524C14.0107 71.8413 13.544 72 12.984 72H7.916L23.904 31.68H30.54L46.528 72ZM67.7398 50.468C66.8998 49.3853 65.9758 48.6293 64.9678 48.2C63.9598 47.7707 62.8678 47.556 61.6918 47.556C59.3398 47.556 57.5011 48.424 56.1758 50.16C54.8504 51.8773 54.1878 54.4253 54.1878 57.804C54.1878 59.5587 54.3371 61.0613 54.6358 62.312C54.9344 63.544 55.3638 64.552 55.9238 65.336C56.4838 66.12 57.1651 66.6893 57.9678 67.044C58.7704 67.3987 59.6758 67.576 60.6838 67.576C62.2144 67.576 63.5304 67.2493 64.6318 66.596C65.7518 65.924 66.7878 64.9813 67.7398 63.768V50.468ZM73.7598 30.56V72H70.1198C69.3171 72 68.8038 71.6173 68.5798 70.852L68.0478 67.744C66.8531 69.144 65.4904 70.2733 63.9598 71.132C62.4478 71.9907 60.6838 72.42 58.6678 72.42C57.0624 72.42 55.6064 72.1027 54.2998 71.468C52.9931 70.8147 51.8731 69.872 50.9398 68.64C50.0064 67.408 49.2784 65.8867 48.7558 64.076C48.2518 62.2467 47.9998 60.156 47.9998 57.804C47.9998 55.676 48.2798 53.7067 48.8398 51.896C49.4184 50.0853 50.2398 48.5173 51.3038 47.192C52.3678 45.848 53.6558 44.8027 55.1678 44.056C56.6984 43.2907 58.4064 42.908 60.2918 42.908C61.9718 42.908 63.3998 43.1787 64.5758 43.72C65.7518 44.2427 66.8064 44.98 67.7398 45.932V30.56H73.7598ZM81.1211 72V43.44H84.7611C85.5825 43.44 86.1051 43.8227 86.3291 44.588L86.7211 47.08C87.2438 46.4827 87.7851 45.9413 88.3451 45.456C88.9051 44.952 89.5025 44.5227 90.1371 44.168C90.7905 43.7947 91.4811 43.5053 92.2091 43.3C92.9558 43.0947 93.7585 42.992 94.6171 42.992C95.5318 42.992 96.3718 43.1227 97.1371 43.384C97.9025 43.6453 98.5745 44.0187 99.1531 44.504C99.7505 44.9893 100.264 45.5773 100.693 46.268C101.122 46.9587 101.477 47.7333 101.757 48.592C102.186 47.6027 102.728 46.7533 103.381 46.044C104.034 45.3347 104.762 44.756 105.565 44.308C106.368 43.86 107.217 43.5333 108.113 43.328C109.028 43.104 109.952 42.992 110.885 42.992C112.416 42.992 113.778 43.2347 114.973 43.72C116.186 44.2053 117.204 44.9147 118.025 45.848C118.865 46.7627 119.5 47.892 119.929 49.236C120.358 50.58 120.573 52.1107 120.573 53.828V72H114.553V53.828C114.553 51.812 114.114 50.3 113.237 49.292C112.378 48.2653 111.1 47.752 109.401 47.752C108.636 47.752 107.917 47.8827 107.245 48.144C106.573 48.4053 105.985 48.788 105.481 49.292C104.977 49.796 104.576 50.4307 104.277 51.196C103.997 51.9427 103.857 52.82 103.857 53.828V72H97.8371V53.828C97.8371 51.7373 97.4171 50.2067 96.5771 49.236C95.7371 48.2467 94.5051 47.752 92.8811 47.752C91.7611 47.752 90.7251 48.0413 89.7731 48.62C88.8211 49.18 87.9438 49.9547 87.1411 50.944V72H81.1211ZM133.878 43.44V72H127.858V43.44H133.878ZM134.886 34.816C134.886 35.3573 134.774 35.8707 134.55 36.356C134.344 36.8413 134.055 37.2707 133.682 37.644C133.308 37.9987 132.87 38.288 132.366 38.512C131.88 38.7173 131.358 38.82 130.798 38.82C130.256 38.82 129.743 38.7173 129.258 38.512C128.791 38.288 128.38 37.9987 128.026 37.644C127.671 37.2707 127.382 36.8413 127.158 36.356C126.952 35.8707 126.85 35.3573 126.85 34.816C126.85 34.256 126.952 33.7333 127.158 33.248C127.382 32.7627 127.671 32.3427 128.026 31.988C128.38 31.6147 128.791 31.3253 129.258 31.12C129.743 30.896 130.256 30.784 130.798 30.784C131.358 30.784 131.88 30.896 132.366 31.12C132.87 31.3253 133.308 31.6147 133.682 31.988C134.055 32.3427 134.344 32.7627 134.55 33.248C134.774 33.7333 134.886 34.256 134.886 34.816ZM147.069 47.22C147.685 46.5853 148.32 46.016 148.973 45.512C149.645 44.9893 150.355 44.5413 151.101 44.168C151.848 43.7947 152.641 43.5053 153.481 43.3C154.321 43.0947 155.236 42.992 156.225 42.992C157.793 42.992 159.165 43.2533 160.341 43.776C161.536 44.2987 162.535 45.036 163.337 45.988C164.159 46.94 164.775 48.088 165.185 49.432C165.596 50.7573 165.801 52.2227 165.801 53.828V72H159.809V53.828C159.809 51.9053 159.361 50.412 158.465 49.348C157.588 48.284 156.244 47.752 154.433 47.752C153.089 47.752 151.839 48.06 150.681 48.676C149.543 49.292 148.469 50.132 147.461 51.196V72H141.441V43.44H145.081C145.903 43.44 146.425 43.8227 146.649 44.588L147.069 47.22ZM194.544 38.568C194.339 38.904 194.124 39.156 193.9 39.324C193.676 39.4733 193.396 39.548 193.06 39.548C192.705 39.548 192.304 39.3987 191.856 39.1C191.427 38.8013 190.885 38.4747 190.232 38.12C189.597 37.7467 188.841 37.4107 187.964 37.112C187.087 36.7947 186.041 36.636 184.828 36.636C183.708 36.636 182.719 36.776 181.86 37.056C181.02 37.336 180.311 37.728 179.732 38.232C179.153 38.736 178.715 39.3333 178.416 40.024C178.136 40.696 177.996 41.4333 177.996 42.236C177.996 43.2627 178.267 44.1213 178.808 44.812C179.349 45.484 180.059 46.0627 180.936 46.548C181.832 47.0333 182.849 47.4627 183.988 47.836C185.127 48.1907 186.284 48.5733 187.46 48.984C188.655 49.3947 189.821 49.8613 190.96 50.384C192.099 50.9067 193.107 51.5693 193.984 52.372C194.88 53.1747 195.599 54.1547 196.14 55.312C196.681 56.4693 196.952 57.8787 196.952 59.54C196.952 61.332 196.644 63.012 196.028 64.58C195.412 66.148 194.516 67.52 193.34 68.696C192.183 69.8533 190.745 70.768 189.028 71.44C187.329 72.112 185.388 72.448 183.204 72.448C181.916 72.448 180.656 72.3173 179.424 72.056C178.211 71.8133 177.044 71.468 175.924 71.02C174.823 70.5533 173.787 69.9933 172.816 69.34C171.845 68.6867 170.977 67.9587 170.212 67.156L172.116 64.02C172.284 63.7587 172.499 63.5533 172.76 63.404C173.021 63.2547 173.311 63.18 173.628 63.18C174.057 63.18 174.533 63.3853 175.056 63.796C175.579 64.188 176.204 64.6267 176.932 65.112C177.679 65.5787 178.575 66.0173 179.62 66.428C180.665 66.82 181.916 67.016 183.372 67.016C185.743 67.016 187.572 66.4373 188.86 65.28C190.167 64.1227 190.82 62.5267 190.82 60.492C190.82 59.3533 190.549 58.4293 190.008 57.72C189.467 56.992 188.748 56.3853 187.852 55.9C186.975 55.4147 185.967 55.004 184.828 54.668C183.689 54.332 182.532 53.9773 181.356 53.604C180.18 53.212 179.023 52.764 177.884 52.26C176.745 51.7373 175.728 51.0653 174.832 50.244C173.955 49.404 173.245 48.3773 172.704 47.164C172.163 45.932 171.892 44.4013 171.892 42.572C171.892 41.116 172.172 39.7067 172.732 38.344C173.311 36.9813 174.141 35.7773 175.224 34.732C176.325 33.668 177.679 32.8187 179.284 32.184C180.889 31.5493 182.719 31.232 184.772 31.232C187.087 31.232 189.205 31.596 191.128 32.324C193.069 33.052 194.74 34.088 196.14 35.432L194.544 38.568ZM221.533 54.5C221.533 53.492 221.383 52.5587 221.085 51.7C220.805 50.8227 220.385 50.0667 219.825 49.432C219.265 48.7787 218.565 48.2747 217.725 47.92C216.903 47.5467 215.951 47.36 214.869 47.36C212.685 47.36 210.967 47.9853 209.717 49.236C208.466 50.4867 207.673 52.2413 207.337 54.5H221.533ZM207.169 58.196C207.243 59.82 207.495 61.2293 207.925 62.424C208.354 63.6 208.923 64.58 209.633 65.364C210.361 66.148 211.219 66.736 212.209 67.128C213.217 67.5013 214.337 67.688 215.569 67.688C216.745 67.688 217.762 67.5573 218.621 67.296C219.479 67.016 220.226 66.7173 220.861 66.4C221.495 66.064 222.037 65.7653 222.485 65.504C222.933 65.224 223.343 65.084 223.717 65.084C224.202 65.084 224.575 65.2707 224.837 65.644L226.545 67.856C225.835 68.696 225.033 69.4053 224.137 69.984C223.241 70.5627 222.289 71.0387 221.281 71.412C220.273 71.7667 219.237 72.0187 218.173 72.168C217.109 72.336 216.073 72.42 215.065 72.42C213.086 72.42 211.247 72.0933 209.549 71.44C207.869 70.768 206.403 69.788 205.153 68.5C203.921 67.212 202.95 65.616 202.241 63.712C201.55 61.808 201.205 59.6147 201.205 57.132C201.205 55.1533 201.513 53.3053 202.129 51.588C202.763 49.8707 203.659 48.3773 204.817 47.108C205.993 45.8387 207.411 44.84 209.073 44.112C210.753 43.3653 212.647 42.992 214.757 42.992C216.511 42.992 218.135 43.2813 219.629 43.86C221.122 44.42 222.41 45.2507 223.493 46.352C224.575 47.4533 225.415 48.8067 226.013 50.412C226.629 51.9987 226.937 53.8093 226.937 55.844C226.937 56.7773 226.834 57.4027 226.629 57.72C226.423 58.0373 226.05 58.196 225.509 58.196H207.169ZM277.805 72H271.813V48.172H258.429V64.384C258.429 65.4107 258.681 66.1947 259.185 66.736C259.689 67.2773 260.361 67.548 261.201 67.548C261.668 67.548 262.069 67.492 262.405 67.38C262.76 67.2493 263.059 67.1187 263.301 66.988C263.544 66.8387 263.749 66.708 263.917 66.596C264.104 66.4653 264.272 66.4 264.421 66.4C264.627 66.4 264.785 66.4467 264.897 66.54C265.009 66.6147 265.131 66.7547 265.261 66.96L267.053 69.9C266.101 70.7213 264.991 71.356 263.721 71.804C262.471 72.2333 261.173 72.448 259.829 72.448C257.44 72.448 255.611 71.7853 254.341 70.46C253.072 69.116 252.437 67.2307 252.437 64.804V48.172H240.061V64.384C240.061 65.4107 240.313 66.1947 240.817 66.736C241.321 67.2773 241.993 67.548 242.833 67.548C243.3 67.548 243.701 67.492 244.037 67.38C244.373 67.2493 244.663 67.1187 244.905 66.988C245.148 66.8387 245.353 66.708 245.521 66.596C245.708 66.4653 245.885 66.4 246.053 66.4C246.389 66.4 246.66 66.5867 246.865 66.96L248.657 69.9C247.724 70.7213 246.623 71.356 245.353 71.804C244.084 72.2333 242.777 72.448 241.433 72.448C239.063 72.448 237.233 71.7853 235.945 70.46C234.676 69.116 234.041 67.2307 234.041 64.804V48.172H230.905C230.569 48.172 230.28 48.0693 230.037 47.864C229.795 47.64 229.673 47.3133 229.673 46.884V44.448L234.293 43.776L235.609 35.516C235.703 35.1987 235.861 34.9467 236.085 34.76C236.309 34.5547 236.608 34.452 236.981 34.452H240.061V43.832H252.689L254.005 35.516C254.08 35.1987 254.229 34.9467 254.453 34.76C254.677 34.5547 254.976 34.452 255.349 34.452H258.429V43.832H277.805V72ZM278.925 34.676C278.925 35.2173 278.813 35.7307 278.589 36.216C278.384 36.6827 278.095 37.1027 277.721 37.476C277.348 37.8307 276.909 38.12 276.405 38.344C275.92 38.5493 275.407 38.652 274.865 38.652C274.324 38.652 273.811 38.5493 273.325 38.344C272.859 38.12 272.439 37.8307 272.065 37.476C271.711 37.1027 271.421 36.6827 271.197 36.216C270.992 35.7307 270.889 35.2173 270.889 34.676C270.889 34.116 270.992 33.5933 271.197 33.108C271.421 32.604 271.711 32.1747 272.065 31.82C272.439 31.4467 272.859 31.1573 273.325 30.952C273.811 30.728 274.324 30.616 274.865 30.616C275.407 30.616 275.92 30.728 276.405 30.952C276.909 31.1573 277.348 31.4467 277.721 31.82C278.095 32.1747 278.384 32.604 278.589 33.108C278.813 33.5933 278.925 34.116 278.925 34.676ZM291.007 47.22C291.623 46.5853 292.258 46.016 292.911 45.512C293.583 44.9893 294.292 44.5413 295.039 44.168C295.786 43.7947 296.579 43.5053 297.419 43.3C298.259 43.0947 299.174 42.992 300.163 42.992C301.731 42.992 303.103 43.2533 304.279 43.776C305.474 44.2987 306.472 45.036 307.275 45.988C308.096 46.94 308.712 48.088 309.123 49.432C309.534 50.7573 309.739 52.2227 309.739 53.828V72H303.747V53.828C303.747 51.9053 303.299 50.412 302.403 49.348C301.526 48.284 300.182 47.752 298.371 47.752C297.027 47.752 295.776 48.06 294.619 48.676C293.48 49.292 292.407 50.132 291.399 51.196V72H285.379V43.44H289.019C289.84 43.44 290.363 43.8227 290.587 44.588L291.007 47.22ZM326.962 57.468C328.828 57.468 330.228 56.992 331.162 56.04C332.095 55.088 332.562 53.8467 332.562 52.316C332.562 50.748 332.095 49.5067 331.162 48.592C330.228 47.6773 328.828 47.22 326.962 47.22C325.114 47.22 323.714 47.6773 322.762 48.592C321.828 49.5067 321.362 50.748 321.362 52.316C321.362 53.0627 321.483 53.7533 321.726 54.388C321.968 55.0227 322.323 55.5733 322.79 56.04C323.256 56.488 323.835 56.8427 324.526 57.104C325.235 57.3467 326.047 57.468 326.962 57.468ZM335.334 73.4C335.334 72.7653 335.147 72.2613 334.774 71.888C334.419 71.496 333.934 71.1973 333.318 70.992C332.702 70.768 331.983 70.6093 331.162 70.516C330.34 70.404 329.463 70.3293 328.53 70.292C327.615 70.236 326.672 70.1893 325.702 70.152C324.75 70.096 323.826 70.0027 322.93 69.872C322.034 70.3387 321.296 70.8987 320.718 71.552C320.158 72.2053 319.878 72.9613 319.878 73.82C319.878 74.38 320.018 74.9027 320.298 75.388C320.596 75.8733 321.044 76.2933 321.642 76.648C322.258 77.0027 323.032 77.2827 323.966 77.488C324.918 77.6933 326.056 77.796 327.382 77.796C330.032 77.796 332.02 77.3853 333.346 76.564C334.671 75.7427 335.334 74.688 335.334 73.4ZM341.382 44.476V46.716C341.382 47.4627 340.934 47.92 340.038 48.088L337.182 48.564C337.667 49.6467 337.91 50.8507 337.91 52.176C337.91 53.576 337.63 54.8453 337.07 55.984C336.528 57.1227 335.772 58.0933 334.802 58.896C333.831 59.6987 332.674 60.3147 331.33 60.744C329.986 61.1733 328.53 61.388 326.962 61.388C326.364 61.388 325.776 61.36 325.198 61.304C324.638 61.2293 324.087 61.136 323.546 61.024C323.004 61.3413 322.603 61.6773 322.342 62.032C322.08 62.3867 321.95 62.7507 321.95 63.124C321.95 63.74 322.22 64.1973 322.762 64.496C323.303 64.7947 324.012 65.0093 324.89 65.14C325.786 65.2707 326.803 65.3547 327.942 65.392C329.08 65.4293 330.238 65.4947 331.414 65.588C332.59 65.6813 333.747 65.84 334.886 66.064C336.024 66.2693 337.032 66.624 337.91 67.128C338.806 67.6133 339.524 68.276 340.066 69.116C340.607 69.956 340.878 71.048 340.878 72.392C340.878 73.624 340.57 74.828 339.954 76.004C339.338 77.18 338.442 78.2253 337.266 79.14C336.108 80.0547 334.69 80.7827 333.01 81.324C331.33 81.884 329.416 82.164 327.27 82.164C325.142 82.164 323.284 81.9587 321.698 81.548C320.13 81.1373 318.814 80.5773 317.75 79.868C316.704 79.1773 315.92 78.3747 315.398 77.46C314.894 76.5453 314.642 75.5933 314.642 74.604C314.642 73.26 315.062 72.112 315.902 71.16C316.76 70.208 317.918 69.4613 319.374 68.92C318.59 68.5467 317.955 68.0333 317.47 67.38C317.003 66.7267 316.77 65.868 316.77 64.804C316.77 63.964 317.078 63.0867 317.694 62.172C318.31 61.2573 319.234 60.4827 320.466 59.848C319.047 59.064 317.927 58.028 317.106 56.74C316.284 55.4333 315.874 53.912 315.874 52.176C315.874 50.7573 316.144 49.4787 316.686 48.34C317.246 47.2013 318.02 46.2307 319.01 45.428C319.999 44.6253 321.166 44.0093 322.51 43.58C323.872 43.1507 325.356 42.936 326.962 42.936C329.426 42.936 331.572 43.4493 333.402 44.476H341.382ZM363.189 48.62C363.039 48.8813 362.871 49.068 362.685 49.18C362.498 49.292 362.265 49.348 361.985 49.348C361.667 49.348 361.322 49.2547 360.949 49.068C360.575 48.8627 360.137 48.6387 359.633 48.396C359.129 48.1533 358.531 47.9387 357.841 47.752C357.169 47.5467 356.375 47.444 355.461 47.444C354.714 47.444 354.033 47.5373 353.417 47.724C352.819 47.892 352.306 48.144 351.877 48.48C351.466 48.7973 351.149 49.18 350.925 49.628C350.701 50.0573 350.589 50.524 350.589 51.028C350.589 51.7 350.794 52.26 351.205 52.708C351.615 53.156 352.157 53.548 352.829 53.884C353.501 54.2013 354.266 54.4907 355.125 54.752C355.983 55.0133 356.861 55.2933 357.757 55.592C358.653 55.8907 359.53 56.236 360.389 56.628C361.247 57.02 362.013 57.5053 362.685 58.084C363.357 58.644 363.898 59.3347 364.309 60.156C364.719 60.9587 364.925 61.9387 364.925 63.096C364.925 64.44 364.682 65.6813 364.197 66.82C363.711 67.9587 363.002 68.948 362.069 69.788C361.135 70.628 359.969 71.2813 358.569 71.748C357.187 72.2147 355.601 72.448 353.809 72.448C352.819 72.448 351.858 72.3547 350.925 72.168C350.01 72 349.133 71.7667 348.293 71.468C347.471 71.1507 346.697 70.7773 345.969 70.348C345.259 69.9187 344.625 69.452 344.065 68.948L345.465 66.652C345.633 66.372 345.838 66.1573 346.081 66.008C346.342 65.84 346.659 65.756 347.033 65.756C347.425 65.756 347.807 65.8867 348.181 66.148C348.573 66.3907 349.021 66.6613 349.525 66.96C350.047 67.2587 350.673 67.5387 351.401 67.8C352.129 68.0427 353.034 68.164 354.117 68.164C355.013 68.164 355.787 68.0613 356.441 67.856C357.094 67.632 357.635 67.3333 358.065 66.96C358.494 66.5867 358.811 66.1667 359.017 65.7C359.222 65.2147 359.325 64.7013 359.325 64.16C359.325 63.432 359.119 62.8347 358.709 62.368C358.298 61.9013 357.747 61.5 357.057 61.164C356.385 60.828 355.61 60.5293 354.733 60.268C353.874 60.0067 352.997 59.7267 352.101 59.428C351.205 59.1293 350.318 58.784 349.441 58.392C348.582 58 347.807 57.5053 347.117 56.908C346.445 56.292 345.903 55.5547 345.493 54.696C345.082 53.8187 344.877 52.7547 344.877 51.504C344.877 50.3653 345.101 49.2827 345.549 48.256C346.015 47.2293 346.687 46.324 347.565 45.54C348.461 44.756 349.553 44.14 350.841 43.692C352.147 43.2253 353.65 42.992 355.349 42.992C357.271 42.992 359.017 43.3 360.585 43.916C362.153 44.532 363.469 45.372 364.533 46.436L363.189 48.62Z" fill="black"/>
</svg>
